<svg width="26" height="40" viewBox="0 0 26 40" fill="none" xmlns="http://www.w3.org/2000/svg">
<path fill-rule="evenodd" clip-rule="evenodd" d="M23.4667 27.3333V12.6667C23.4667 6.70199 18.6313 1.86667 12.6667 1.86667C6.70199 1.86667 1.86667 6.70199 1.86667 12.6667V27.3333C1.86667 33.298 6.70199 38.1333 12.6667 38.1333C18.6313 38.1333 23.4667 33.298 23.4667 27.3333ZM12.6667 0C5.67106 0 0 5.67106 0 12.6667V27.3333C0 34.3289 5.67106 40 12.6667 40C19.6623 40 25.3333 34.3289 25.3333 27.3333V12.6667C25.3333 5.67106 19.6623 0 12.6667 0Z" fill="#6E7692"/>
<rect x="11.3333" y="8.66665" width="2.66667" height="8" rx="1.33333" fill="#6E7692"/>
</svg>
